<?xml version="1.0" encoding="UTF-8"?>
<svg id="Layer_2" data-name="Layer 2" xmlns="http://www.w3.org/2000/svg" viewBox="0 0 87.43 87.43">
  <defs>
    <style>
      .cls-1 {
        fill: #e8f4d8;
      }
    </style>
  </defs>
  <g id="Layer_1-2" data-name="Layer 1">
    <polygon class="cls-1" points="87.43 42 58.39 42 86.49 34.47 85.5 30.74 57.45 38.26 82.64 23.71 80.71 20.37 55.57 34.89 76.14 14.32 73.41 11.59 52.88 32.12 67.43 6.93 64.09 5 49.57 30.15 57.1 2.04 53.37 1.05 45.86 29.09 45.86 0 42 0 42 29.04 34.47 .93 30.74 1.93 38.26 29.98 23.71 4.79 20.37 6.71 34.89 31.86 14.32 11.29 11.59 14.02 32.12 34.55 6.93 20 5 23.34 30.15 37.86 2.04 30.33 1.05 34.06 29.09 41.57 0 41.57 0 45.43 29.04 45.43 .93 52.96 1.93 56.68 29.98 49.17 4.79 63.72 6.71 67.06 31.86 52.54 11.29 73.11 14.02 75.84 34.55 55.3 20 80.5 23.34 82.43 37.86 57.28 30.33 85.38 34.06 86.38 41.57 58.33 41.57 87.43 45.43 87.43 45.43 58.39 52.96 86.49 56.68 85.5 49.17 57.45 63.72 82.64 67.06 80.71 52.54 55.57 73.11 76.14 75.84 73.41 55.3 52.88 80.5 67.43 82.43 64.09 57.28 49.57 85.38 57.1 86.38 53.37 58.34 45.86 87.43 45.86 87.43 42"/>
  </g>
</svg>